<?xml version="1.0" encoding="UTF-8"?>
<svg version="1.1" xmlns="http://www.w3.org/2000/svg" width="1506" height="240">
<path d="M0 0 C1.80905019 -0.01655361 3.61803513 -0.04383604 5.42675781 -0.08203125 C8.03184006 -0.13678487 10.63538672 -0.15867149 13.2409668 -0.17333984 C14.45209892 -0.2073439 14.45209892 -0.2073439 15.68769836 -0.24203491 C19.44759924 -0.22788406 21.51551549 0.04301831 24.51318359 2.3828125 C27.27342226 8.25091478 24.51262031 15.42553212 22.83032227 21.44775391 C22.61985638 22.21852736 22.40939049 22.98930082 22.19254684 23.78343105 C21.49641003 26.32793673 20.7925184 28.87022839 20.08862305 31.41259766 C19.59269455 33.2197528 19.09729377 35.02705284 18.60238647 36.83448792 C17.54972862 40.67533006 16.49384616 44.51526486 15.4354248 48.35452271 C13.76860368 54.4019381 12.11075077 60.45178817 10.45483398 66.50219727 C9.90027639 68.52812409 9.34571098 70.55404878 8.7911377 72.57997131 C8.38108742 74.07798625 8.38108742 74.07798625 7.9627533 75.60626411 C6.8655954 79.61313928 5.76721548 83.619679 4.66882324 87.62621593 C0.80667071 101.71479482 -3.0478156 115.80527324 -6.84106445 129.91259766 C-7.12084137 130.95218628 -7.40061829 131.9917749 -7.68887329 133.06286621 C-11.71644845 148.06697438 -15.57120554 163.11256792 -19.3762207 178.17431641 C-19.60495502 179.07948565 -19.83368935 179.98465488 -20.06935501 180.91725349 C-22.36190662 189.99277382 -24.64806528 199.0698459 -26.91607761 208.15153217 C-27.75813429 211.52081111 -28.60358947 214.88923216 -29.44955254 218.25753212 C-29.84547325 219.8380848 -30.23966282 221.41907223 -30.63203621 223.00050926 C-31.17256514 225.17897737 -31.71871762 227.35596375 -32.26611328 229.53271484 C-32.57172684 230.75835144 -32.87734039 231.98398804 -33.19221497 233.24676514 C-33.94411909 235.84275986 -34.77153909 238.00590101 -36.09106445 240.35009766 C-41.75102862 240.42412133 -47.41071256 240.47863938 -53.07104492 240.51489258 C-54.99752712 240.53000161 -56.92397481 240.5504898 -58.8503418 240.57641602 C-61.61556502 240.6127069 -64.3803345 240.62980245 -67.14575195 240.64306641 C-68.44269485 240.66629219 -68.44269485 240.66629219 -69.76583862 240.68998718 C-72.19213867 240.69067383 -72.19213867 240.69067383 -76.09106445 240.35009766 C-78.85908432 236.19806786 -78.01095025 233.02422539 -77.09106445 228.35009766 C-76.0778471 224.46981643 -74.90806305 220.64453415 -73.71765137 216.81530762 C-68.48087008 199.86845899 -63.8856959 182.74267571 -59.34106445 165.60009766 C-59.16599113 164.94001205 -58.99091782 164.27992645 -58.81053925 163.59983826 C-50.34895194 131.67912884 -42.18804601 99.68024737 -34.03448486 67.67975998 C-33.38494869 65.1307387 -32.73510449 62.58179612 -32.08520508 60.03286743 C-29.98345818 51.78791682 -27.88543174 43.54205442 -25.79608345 35.29395199 C-24.77631063 31.27070482 -23.75376179 27.24816619 -22.73072433 23.22574806 C-22.23891712 21.28921998 -21.74836775 19.35237198 -21.25911331 17.41519737 C-20.58304353 14.73879449 -19.90273615 12.06350304 -19.22143555 9.38842773 C-19.01974636 8.58547838 -18.81805717 7.78252903 -18.6102562 6.95524788 C-16.16423502 -2.60292576 -8.66613352 0.05818836 0 0 Z " fill="#111111" transform="translate(745.091064453125,-0.35009765625)"/>
<path d="M0 0 C69.97504798 0 69.97504798 0 83 13 C90.73428243 22.74384489 93.16854892 34.77892589 92 47 C90.23652102 57.71313481 86.02294007 66.09122657 77.25 72.625 C72.36758893 76 72.36758893 76 70 76 C71.89181886 79.52300376 73.78867891 83.04326551 75.6875 86.5625 C76.26459717 87.63266357 76.84169434 88.70282715 77.4362793 89.80541992 C82.1661332 98.54065503 87.03921678 107.18823988 92.03588867 115.77368164 C92.55642822 116.67981201 93.07696777 117.58594238 93.61328125 118.51953125 C94.30611206 119.71219604 94.30611206 119.71219604 95.01293945 120.92895508 C96 123 96 123 96 126 C87.42 126 78.84 126 70 126 C68.77023437 123.67324219 67.54046875 121.34648437 66.2734375 118.94921875 C65.06218266 116.65868232 63.85068267 114.36827572 62.63916016 112.07788086 C61.8068734 110.50412273 60.97483561 108.9302329 60.14306641 107.35620117 C59.7413623 106.59605713 59.3396582 105.83591309 58.92578125 105.05273438 C58.33050629 103.92220139 58.33050629 103.92220139 57.72320557 102.76882935 C56.92353311 101.26441426 56.11274281 99.76585628 55.29095459 98.27340698 C53.5049071 95.01006171 52.00886603 92.0271433 50.84863281 88.47509766 C49.81138967 84.94325435 49.81138967 84.94325435 46 81 C35.11 80.505 35.11 80.505 24 80 C24 95.18 24 110.36 24 126 C16.08 126 8.16 126 0 126 C0 84.42 0 42.84 0 0 Z M24 20 C24 33.53 24 47.06 24 61 C27.58875 61.04125 31.1775 61.0825 34.875 61.125 C35.98472168 61.14320801 37.09444336 61.16141602 38.23779297 61.18017578 C47.11019588 61.22893389 55.98721708 61.01095679 63 55 C67.77969299 48.67013631 68.61987917 43.73701042 68 36 C66.95873162 30.89954978 65.09903269 27.16350795 60.76489258 24.01953125 C53.03010891 19.55135355 45.15431734 19.62584085 36.4375 19.8125 C30.2809375 19.9053125 30.2809375 19.9053125 24 20 Z " fill="#111111" transform="translate(949,67)"/>
<path d="M0 0 C12.3273173 9.13883086 19.63729233 22.81141391 22.4921875 37.7421875 C25.50373063 59.52532807 23.08108195 80.95430912 9.81640625 98.96484375 C-0.33988861 111.12237898 -13.65522046 117.10296266 -29.25 118.8125 C-46.26010896 119.76086906 -61.14525684 115.27018314 -74 104 C-89.16628538 88.41315904 -92.44692407 69.40361012 -92.21875 48.54296875 C-91.81159608 33.54698087 -87.07884013 20.8462936 -78 9 C-77.39285156 8.17242187 -76.78570313 7.34484375 -76.16015625 6.4921875 C-57.80327245 -14.6862788 -21.85835236 -15.83109289 0 0 Z M-58 20 C-67.99458966 32.5583321 -70.11462047 47.40034007 -68.375 63.0625 C-66.94819019 73.8238794 -63.41090495 83.77632021 -55 91 C-45.96677783 97.11385595 -37.72278722 97.76513263 -27 97 C-19.79617245 95.40342407 -13.68017381 91.7072927 -9 86 C-0.04429199 71.78038472 1.81629715 56.46824724 -1.25 40.05078125 C-3.66663093 30.22063148 -7.65136007 20.91891354 -16.53125 15.4375 C-30.21546012 8.35390888 -46.66777098 8.66777098 -58 20 Z " fill="#111111" transform="translate(1483,76)"/>
<path d="M0 0 C0.95900208 -0.00637985 1.91800415 -0.0127597 2.90606689 -0.01933289 C4.47768585 -0.02100212 4.47768585 -0.02100212 6.08105469 -0.02270508 C7.15861023 -0.02603348 8.23616577 -0.02936188 9.34637451 -0.03279114 C11.63976616 -0.03786996 13.93316524 -0.04019917 16.2265625 -0.04003906 C19.69641842 -0.04220112 23.16594365 -0.06027815 26.63574219 -0.0793457 C61.1506031 -0.17221192 61.1506031 -0.17221192 74.98730469 11.18432617 C84.13594642 20.64250841 86.90058989 32.6088195 86.78027344 45.37573242 C85.94957918 56.66615432 81.50256887 66.78895968 73.12792969 74.45776367 C61.24062023 83.79226698 46.76493753 84.62108126 32.12792969 84.33276367 C25.38355469 84.23995117 25.38355469 84.23995117 18.50292969 84.14526367 C18.50292969 98.00526367 18.50292969 111.86526367 18.50292969 126.14526367 C10.58292969 126.14526367 2.66292969 126.14526367 -5.49707031 126.14526367 C-5.51961736 109.86455755 -5.5380495 93.5838647 -5.54888248 77.30314732 C-5.55404544 69.74424749 -5.56108811 62.18535802 -5.57250977 54.62646484 C-5.58245663 48.04046702 -5.58892375 41.45447669 -5.59115881 34.86847156 C-5.59246591 31.37913296 -5.59555173 27.88981583 -5.60280037 24.40048409 C-5.61081429 20.51145135 -5.61106145 16.62243989 -5.6105957 12.73339844 C-5.61419098 11.5681514 -5.61778625 10.40290436 -5.62149048 9.2023468 C-5.62011581 8.14920288 -5.61874115 7.09605896 -5.61732483 6.01100159 C-5.61870752 4.6296948 -5.61870752 4.6296948 -5.62011814 3.22048283 C-5.39055072 -0.65120446 -3.38749649 0.01524829 0 0 Z M18.50292969 20.14526367 C18.50292969 34.66526367 18.50292969 49.18526367 18.50292969 64.14526367 C25.12355469 64.29995117 25.12355469 64.29995117 31.87792969 64.45776367 C33.93406494 64.5260437 33.93406494 64.5260437 36.03173828 64.59570312 C43.8282502 64.68325995 50.13389775 63.94233749 56.50292969 59.14526367 C62.13679998 52.27982902 63.12432201 45.85670606 62.50292969 37.14526367 C61.45142705 31.07809344 58.44907601 27.61491775 53.92871094 23.59057617 C46.70280122 19.28528375 38.63059832 19.90017652 30.50292969 20.02026367 C26.54292969 20.06151367 22.58292969 20.10276367 18.50292969 20.14526367 Z " fill="#111111" transform="translate(1181.4970703125,66.854736328125)"/>
<path d="M0 0 C10.34554573 8.32836404 15.57623111 20.63316793 17.7109375 33.44140625 C9.7909375 33.44140625 1.8709375 33.44140625 -6.2890625 33.44140625 C-7.6090625 30.14140625 -8.9290625 26.84140625 -10.2890625 23.44140625 C-14.14592036 17.60102149 -19.53491063 14.01615677 -26.15234375 11.82421875 C-35.20263109 10.20277787 -44.30337393 10.7137677 -52.2890625 15.44140625 C-60.73665052 21.49844419 -65.76008836 28.95170768 -67.94335938 39.18261719 C-70.34973678 54.90564244 -69.67076337 72.26588024 -60.05859375 85.50390625 C-54.55949763 91.52499162 -47.6284196 95.05468634 -39.51953125 95.77734375 C-31.77616545 95.95019946 -24.94564902 95.83778534 -18.2890625 91.44140625 C-17.65613281 91.04050781 -17.02320313 90.63960938 -16.37109375 90.2265625 C-10.79443173 86.12432711 -8.8294414 80.75386292 -6.2890625 74.44140625 C1.6309375 74.44140625 9.5509375 74.44140625 17.7109375 74.44140625 C14.51998631 89.50978688 8.46503482 101.21373814 -4.546875 109.8046875 C-19.09774676 118.48960953 -35.87162836 120.31414184 -52.2890625 116.44140625 C-65.49211189 112.44194238 -77.24972011 104.2182609 -84.1640625 92.17578125 C-95.19285567 71.41352296 -96.21596155 48.03310033 -89.4453125 25.65234375 C-87.12622864 19.19489471 -83.44214454 13.8604497 -79.2890625 8.44140625 C-78.68191406 7.61382812 -78.07476563 6.78625 -77.44921875 5.93359375 C-58.3051402 -16.15306468 -22.71985964 -15.46966552 0 0 Z " fill="#111111" transform="translate(912.2890625,76.55859375)"/>
<path d="M0 0 C7.35489734 -0.09333035 14.70966372 -0.16408039 22.06503677 -0.20724869 C25.48172407 -0.22798401 28.89800158 -0.25603762 32.31445312 -0.30175781 C36.25645777 -0.35417147 40.19830569 -0.37306136 44.140625 -0.390625 C45.95074066 -0.42159271 45.95074066 -0.42159271 47.79742432 -0.45318604 C59.12435531 -0.4561354 69.65638763 1.91838512 78 10 C84.33124574 17.83075132 84.91815781 26.23730933 84 36 C81.85256695 45.15552294 76.44775108 52.01763781 68.5625 57 C67.38285894 57.68047606 66.19815781 58.35268357 65 59 C65.94101562 59.44730469 66.88203125 59.89460938 67.8515625 60.35546875 C69.10958875 60.96570537 70.36738929 61.57640747 71.625 62.1875 C72.24246094 62.47947266 72.85992188 62.77144531 73.49609375 63.07226562 C79.82325948 66.16924675 84.70517238 69.77711677 88.3125 76 C89.04919922 77.2375 89.04919922 77.2375 89.80078125 78.5 C93.24234193 85.67458905 92.44146952 93.08856535 90.03125 100.453125 C85.70111392 111.14724896 77.13300235 119.19487412 66.73046875 123.96875 C56.26279291 127.92220697 46.32877129 128.69404101 35.3125 127.4921875 C30.09222164 126.9571223 24.93190649 126.84767267 19.6875 126.875 C18.7797583 126.87693359 17.8720166 126.87886719 16.93676758 126.88085938 C9.91915862 126.9257282 2.9832763 127.2744648 -4 128 C-3.67 124.7 -3.34 121.4 -3 118 C-2.24074219 117.75765625 -1.48148438 117.5153125 -0.69921875 117.265625 C0.79158203 116.76289063 0.79158203 116.76289063 2.3125 116.25 C3.79169922 115.76273438 3.79169922 115.76273438 5.30078125 115.265625 C8.33223457 113.84421997 9.41861322 112.92735676 11 110 C12.08209474 105.05070736 12.14810164 100.24951525 12.14526367 95.21240234 C12.14862228 94.34988358 12.1519809 93.48736481 12.15544128 92.59870911 C12.16490423 89.76110375 12.16689166 86.92355763 12.16796875 84.0859375 C12.17118319 82.1086932 12.17454741 80.13144913 12.17805481 78.15420532 C12.18403342 74.01686043 12.18589587 69.8795364 12.18530273 65.7421875 C12.18520087 60.43811329 12.19888397 55.13417222 12.21607494 49.83012962 C12.22718267 45.75010562 12.22922237 41.67011402 12.22869301 37.59007645 C12.22987379 35.63403487 12.23430103 33.67799247 12.24202538 31.72196579 C12.25180588 28.99081757 12.24895553 26.25996136 12.24291992 23.52880859 C12.25134918 22.31619606 12.25134918 22.31619606 12.25994873 21.0790863 C12.29594793 15.69857842 12.29594793 15.69857842 10 11 C7.38159615 10.37078045 7.38159615 10.37078045 4.4375 10.375 C1.43359375 10.2734375 1.43359375 10.2734375 -1 10 C-2.27351308 7.45297384 -1.80191925 6.5717055 -1.0625 3.875 C-0.77052734 2.78832031 -0.77052734 2.78832031 -0.47265625 1.6796875 C-0.31667969 1.12539062 -0.16070313 0.57109375 0 0 Z M31 9 C25.15654185 20.6869163 28.91768174 42.94939017 29 56 C32.85910461 57.2863682 36.65921918 57.5226722 40.6875 57.8125 C41.85442383 57.92754883 41.85442383 57.92754883 43.04492188 58.04492188 C48.98389969 58.45604378 53.05093511 57.32900887 58 54 C60.24634783 52.13664186 60.24634783 52.13664186 61.875 50.0625 C62.42929687 49.41410156 62.98359375 48.76570313 63.5546875 48.09765625 C68.18162456 41.3823449 67.66452537 33.81647969 67 26 C65.41850252 20.06039867 62.09214708 16.42740669 57 13 C50.4848267 9.94081254 44.38245624 8.86482367 37.1875 8.9375 C36.02605469 8.94652344 34.86460937 8.95554687 33.66796875 8.96484375 C32.78753906 8.97644531 31.90710938 8.98804687 31 9 Z M28 67 C27.78223358 72.4437791 27.58552113 77.88776878 27.40795898 83.33300781 C27.34467994 85.18379859 27.27573443 87.03440493 27.20092773 88.88476562 C27.09415529 91.55049368 27.00803796 94.21622891 26.92578125 96.8828125 C26.88842361 97.70492218 26.85106598 98.52703186 26.81257629 99.37405396 C26.68298395 104.36869307 27.19536011 107.67892882 30 112 C37.09630846 117.83474251 45.17891015 117.60324873 54 117 C61.05634541 115.79633545 66.35377966 112.42059039 71 107 C74.61389988 101.26384349 74.80544873 94.58088226 74 88 C72.27112061 80.84779061 69.27742166 75.91112795 63 72 C56.98622624 68.8407371 51.62825543 66.86262642 44.796875 66.90234375 C43.8171875 66.90556641 42.8375 66.90878906 41.828125 66.91210938 C40.81234375 66.92048828 39.7965625 66.92886719 38.75 66.9375 C37.71875 66.94201172 36.6875 66.94652344 35.625 66.95117188 C33.08327427 66.96293912 30.54166681 66.97937989 28 67 Z " fill="#111111" transform="translate(525,67)"/>
<path d="M0 0 C4.04042673 -0.26233625 8.07866481 -0.42150491 12.125 -0.5625 C13.26710938 -0.63791016 14.40921875 -0.71332031 15.5859375 -0.79101562 C23.8062327 -1.00608149 23.8062327 -1.00608149 26.90844727 1.60839844 C28.54300739 3.9893762 29.76763957 6.38818349 31 9 C32.08304576 10.9684591 33.1705135 12.93448983 34.26171875 14.8984375 C35.40731719 17.0553457 36.54911569 19.2142756 37.6875 21.375 C43.55257585 32.39732478 49.65300107 43.24896099 56 54 C58.37538153 50.98434074 60.26848102 47.87384639 62.1171875 44.51171875 C63.01908813 42.87843628 63.01908813 42.87843628 63.93920898 41.2121582 C64.25509979 40.63696442 64.5709906 40.06177063 64.89645386 39.46914673 C66.55896565 36.44219832 68.23116545 33.42060703 69.90234375 30.3984375 C70.24183548 29.78392227 70.58132721 29.16940704 70.93110657 28.53627014 C76.21392746 18.98280552 81.61638992 9.49693014 87 0 C95.58 0 104.16 0 113 0 C111.52567141 4.42298576 110.29659767 7.52590216 108.015625 11.4296875 C107.41733887 12.4599707 106.81905273 13.49025391 106.20263672 14.55175781 C105.5582666 15.64842773 104.91389648 16.74509766 104.25 17.875 C103.57389239 19.03454567 102.89828179 20.19438127 102.22314453 21.35449219 C100.83379149 23.7397597 99.44124139 26.12311448 98.04589844 28.50488281 C96.14091721 31.75708756 94.24506695 35.01453477 92.3515625 38.2734375 C91.7733374 39.26424316 91.1951123 40.25504883 90.59936523 41.27587891 C89.44098125 43.27381656 88.2948014 45.27887561 87.16040039 47.29052734 C84.45647341 52.04101341 81.72958701 56.46484976 78.26953125 60.703125 C63.89595655 79.34045595 67.45231405 103.64363912 68 126 C60.41 126 52.82 126 45 126 C45.10183594 122.90882813 45.20367188 119.81765625 45.30859375 116.6328125 C45.812124 93.02162248 45.72784471 75.3786571 31.10498047 55.92041016 C27.43911709 50.83446053 24.49270608 45.34110878 21.4375 39.875 C20.20957039 37.73346998 18.97781454 35.59412922 17.7421875 33.45703125 C17.13213867 32.40080566 16.52208984 31.34458008 15.89355469 30.25634766 C13.92653007 26.8736537 11.93889731 23.50382134 9.9453125 20.13671875 C9.29377197 19.03279785 8.64223145 17.92887695 7.97094727 16.79150391 C6.72440196 14.6824073 5.47251175 12.57645807 4.21459961 10.47412109 C3.6603833 9.5352002 3.10616699 8.5962793 2.53515625 7.62890625 C2.044104 6.80463135 1.55305176 5.98035645 1.04711914 5.13110352 C0 3 0 3 0 0 Z " fill="#111111" transform="translate(1048,67)"/>
<path d="M0 0 C-0.14572969 2.48438112 -0.29156971 4.96875566 -0.4375 7.453125 C-0.48261719 8.22166809 -0.52773438 8.99021118 -0.57421875 9.78204346 C-0.79832975 13.59377856 -1.02373445 17.40542258 -1.25390625 21.21679688 C-2.89639979 48.41889499 -4.08119975 75.57023019 -4.23016357 102.82702637 C-4.24333319 104.97509155 -4.26123783 107.12313318 -4.28399658 109.27111816 C-4.31381443 112.29677734 -4.32364383 115.32186665 -4.328125 118.34765625 C-4.34042145 119.26299637 -4.3527179 120.17833649 -4.36538696 121.12141418 C-4.35020397 126.02287837 -4.35020397 126.02287837 -2.71777344 130.57592773 C-0.31677994 132.56640458 1.9041771 132.47924278 4.9375 132.33984375 C7.9555457 131.84255213 10.3498606 130.47914757 13 129 C13.99 129 14.98 129 16 129 C16.75390625 131.18359375 16.75390625 131.18359375 17 134 C13.36771202 139.5467174 8.06038568 145.16322372 2 148 C-3.34119089 148.91717419 -7.45217934 148.03188044 -12 145 C-14.97635352 142.12822107 -17.51008099 139.24596474 -18 135 C-22.42343421 136.5414998 -26.13235606 138.91330651 -30 141.5 C-38.21300491 146.99288577 -43.19808018 148.81565763 -53 147 C-64.2783981 143.69341594 -71.06036138 138.10969579 -77 128 C-82.51183762 116.23202552 -82.94471094 101.37760717 -79.4375 88.9375 C-74.04799836 74.18728499 -64.12425509 63.66537881 -50 57 C-40.48376428 53.39788124 -28.90247167 52.31449274 -19 55 C-19.11854188 49.96444777 -19.24280963 44.92908107 -19.37231445 39.89379883 C-19.41554445 38.18192353 -19.45722765 36.47000843 -19.49731445 34.75805664 C-19.55530714 32.29300966 -19.61891697 29.82816082 -19.68359375 27.36328125 C-19.70030624 26.60163162 -19.71701874 25.83998199 -19.73423767 25.05525208 C-19.83917914 21.2650395 -20.10392627 17.6895278 -21 14 C-24.3 13.67 -27.6 13.34 -31 13 C-31 10.69 -31 8.38 -31 6 C-25.50569673 4.35615185 -19.98532224 3.05842735 -14.375 1.875 C-13.12589844 1.60236328 -13.12589844 1.60236328 -11.8515625 1.32421875 C-11.04203125 1.15277344 -10.2325 0.98132812 -9.3984375 0.8046875 C-8.67317871 0.64983887 -7.94791992 0.49499023 -7.20068359 0.33544922 C-4.77225575 -0.03471496 -2.45280791 -0.05543981 0 0 Z M-56.81640625 73.72265625 C-63.83347286 81.09130866 -65.55999559 88.87762384 -65.4375 98.875 C-65.42920166 99.75196533 -65.42090332 100.62893066 -65.41235352 101.5324707 C-65.12305207 112.64638224 -61.74255342 120.92154405 -54 129 C-51.02467925 131.55128454 -47.94868758 133.53544852 -44 134 C-42.845 134.144375 -41.69 134.28875 -40.5 134.4375 C-34.39879019 134.38026539 -29.10545642 131.07031586 -24 128 C-23.12666016 127.55205078 -22.25332031 127.10410156 -21.35351562 126.64257812 C-17.51147166 122.32864826 -18.38548869 117.58531416 -18.51171875 112.015625 C-18.52233086 110.25952911 -18.52233086 110.25952911 -18.53315735 108.46795654 C-18.56115019 104.72798827 -18.62390279 100.98951593 -18.6875 97.25 C-18.71257632 94.71486537 -18.73539064 92.17970727 -18.75585938 89.64453125 C-18.81099316 83.42917693 -18.89467023 77.21469533 -19 71 C-20.2618674 70.34260085 -21.52689533 69.69126611 -22.79321289 69.04248047 C-23.49732803 68.67911591 -24.20144318 68.31575134 -24.92689514 67.94137573 C-35.55437258 63.11554682 -48.62302725 65.95216132 -56.81640625 73.72265625 Z " fill="#111111" transform="translate(351,47)"/>
<path d="M0 0 C33 0 66 0 100 0 C100 6.6 100 13.2 100 20 C87.46 20 74.92 20 62 20 C62 54.98 62 89.96 62 126 C54.41 126 46.82 126 39 126 C39 91.02 39 56.04 39 20 C26.13 20 13.26 20 0 20 C0 13.4 0 6.8 0 0 Z " fill="#111111" transform="translate(1281,67)"/>
<path d="M0 0 C-0.18175781 1.52753906 -0.18175781 1.52753906 -0.3671875 3.0859375 C-1.62764176 13.71864273 -2.82989163 24.35699303 -4 35 C-5.47831221 35.19412181 -6.95769316 35.38012131 -8.4375 35.5625 C-9.26121094 35.66691406 -10.08492188 35.77132812 -10.93359375 35.87890625 C-11.95646484 35.93884766 -11.95646484 35.93884766 -13 36 C-13.33 35.67 -13.66 35.34 -14 35 C-13.99406172 32.64547212 -13.9445618 30.29100759 -13.875 27.9375 C-13.7927759 21.94081167 -14.12768506 17.33429917 -17 12 C-22.88544558 6.68905562 -31.13276825 6.75604798 -38.6875 7.125 C-44.34064429 7.67619837 -48.14077897 9.12046161 -53 12 C-53.99 12.33 -54.98 12.66 -56 13 C-59.24996903 18.41661505 -59.67653217 23.82422773 -59 30 C-55.1134642 38.08399447 -47.23045054 42.73850858 -39.5625 46.8125 C-37.96869552 47.68219184 -36.37494666 48.5519856 -34.78125 49.421875 C-32.45153776 50.68082289 -30.11984393 51.93585074 -27.78515625 53.18554688 C-1.99010708 67.02967877 -1.99010708 67.02967877 2 79 C2.85266533 91.31472385 2.08201401 100.45968594 -6.125 110.25 C-16.41216619 120.90456498 -29.15214604 124.98426639 -43.73510742 125.47192383 C-55.49293224 125.59408029 -67.93416374 124.65336525 -78 118 C-76.58862787 82.58862787 -76.58862787 82.58862787 -75 81 C-73.48071962 80.92820036 -71.95832518 80.91607993 -70.4375 80.9375 C-69.19806641 80.95103516 -69.19806641 80.95103516 -67.93359375 80.96484375 C-66.97646484 80.98224609 -66.97646484 80.98224609 -66 81 C-65.96261719 82.03898437 -65.92523438 83.07796875 -65.88671875 84.1484375 C-65.54384667 97.55530827 -65.54384667 97.55530827 -60.125 109.5 C-53.36178904 114.27403127 -45.02635838 114.64487241 -37 114 C-29.07309431 112.53723314 -22.7102462 110.49479116 -17.625 103.9375 C-14.93735745 98.68643367 -14.9222071 92.53650794 -16.625 86.94921875 C-20.43221314 79.283803 -29.20390586 75.12040291 -36.4375 71.25 C-38.01893376 70.38279407 -39.59964485 69.51426919 -41.1796875 68.64453125 C-41.97729492 68.20705566 -42.77490234 67.76958008 -43.59667969 67.31884766 C-44.38977539 66.88362793 -45.18287109 66.4484082 -46 66 C-46.7724707 65.57638184 -47.54494141 65.15276367 -48.34082031 64.71630859 C-70.64364413 52.38656258 -70.64364413 52.38656258 -75.41015625 41.42578125 C-77.35137417 33.44236185 -77.27501766 24.37490201 -73.31640625 17.05078125 C-72.88199219 16.37402344 -72.44757813 15.69726562 -72 15 C-71.27103516 13.84564453 -71.27103516 13.84564453 -70.52734375 12.66796875 C-63.98923629 3.3476879 -53.29470431 -2.21326626 -42.26171875 -4.58984375 C-28.25089613 -6.35168372 -13.08595249 -5.63627167 0 0 Z " fill="#111111" transform="translate(78,70)"/>
<path d="M0 0 C1.58849118 5.09376172 0.46028101 9.80159497 -0.375 14.9375 C-2.34129297 27.97736052 -3.10708919 40.69388853 -3.25 53.875 C-3.27151123 55.04111816 -3.29302246 56.20723633 -3.31518555 57.40869141 C-3.34032 64.00530041 -2.90062877 69.03642017 0 75 C3.42656404 78.42656404 6.54414936 78.88801149 11.25 79.25 C19.38019693 78.70798687 27.31371731 74.85803665 33 69 C34.36186945 65.06175186 34.22192453 61.39690282 34.046875 57.265625 C34.03746887 56.15064636 34.02806274 55.03566772 34.01837158 53.88690186 C33.97579905 50.33871419 33.86265097 46.79657981 33.75 43.25 C33.71697238 40.85031672 33.68827965 38.45056961 33.6640625 36.05078125 C33.5962304 31.67011847 33.52666866 27.29010255 33.38574219 22.91113281 C33.36002136 22.03289856 33.33430054 21.15466431 33.30780029 20.24981689 C33.12847862 17.71952068 33.12847862 17.71952068 31 15 C28.3443272 14.41651248 28.3443272 14.41651248 25.375 14.3125 C24.37210938 14.24675781 23.36921875 14.18101563 22.3359375 14.11328125 C21.56507813 14.07589844 20.79421875 14.03851563 20 14 C19.63434514 8.51517712 19.63434514 8.51517712 21.14453125 6.38745117 C23.64452714 4.51804635 25.81014895 4.17646636 28.875 3.61328125 C30.02484375 3.39736328 31.1746875 3.18144531 32.359375 2.95898438 C33.56078125 2.74564453 34.7621875 2.53230469 36 2.3125 C37.20140625 2.08755859 38.4028125 1.86261719 39.640625 1.63085938 C48.48394757 0 48.48394757 0 52 0 C53.3339588 3.78581266 52.73378707 6.8970818 52.125 10.8125 C49.98468599 24.63410524 49.81345281 38.5285752 49.81469727 52.48388672 C49.81247015 55.2875806 49.79412039 58.09090448 49.77539062 60.89453125 C49.77246297 62.6848945 49.77047398 64.4752596 49.76953125 66.265625 C49.75875298 67.51705292 49.75875298 67.51705292 49.74775696 68.79376221 C49.76337089 72.71273039 49.77663687 74.6649553 52 78 C57.48495468 79.09914612 61.39584495 78.0255876 66 75 C68.3125 75.3125 68.3125 75.3125 70 76 C70 82.45250687 65.61249148 86.01625973 61.515625 90.6953125 C58.75227046 93.41209365 56.38708281 94.35635848 52.625 94.5625 C47.83095216 94.24720849 43.75651332 93.06810251 40 90 C37.61371805 86.57230598 36.31273383 82.93820148 35 79 C34.18917969 79.58007812 33.37835938 80.16015625 32.54296875 80.7578125 C11.25274489 95.85645864 11.25274489 95.85645864 0 94 C-7.6746358 92.17966179 -12.60555542 88.54463152 -17 82 C-18.06749541 78.79751377 -18.13084674 76.48965799 -18.1418457 73.12329102 C-18.14888016 71.91516251 -18.15591461 70.707034 -18.16316223 69.46229553 C-18.16732651 68.15602707 -18.17149078 66.84975861 -18.17578125 65.50390625 C-18.18620637 64.15013347 -18.19762906 62.79636803 -18.21000671 61.44261169 C-18.26241465 55.69476578 -18.31046465 49.94705446 -18.32592773 44.19897461 C-18.33601152 40.68096456 -18.36534082 37.16356472 -18.40724754 33.64579582 C-18.42553081 31.65616035 -18.42290959 29.66636835 -18.41999817 27.676651 C-18.43648911 26.46537033 -18.45298004 25.25408966 -18.4699707 24.00610352 C-18.47877007 22.40751244 -18.47877007 22.40751244 -18.48774719 20.77662659 C-19.12979551 17.2964535 -20.18660119 16.09638298 -23 14 C-26.6675213 13.66582071 -26.6675213 13.66582071 -30 14 C-29.67 11.36 -29.34 8.72 -29 6 C-24.7304064 4.99465576 -20.45913316 3.99663958 -16.1875 3 C-14.97255859 2.71382813 -13.75761719 2.42765625 -12.50585938 2.1328125 C-11.34248047 1.86210938 -10.17910156 1.59140625 -8.98046875 1.3125 C-7.90692139 1.06113281 -6.83337402 0.80976562 -5.72729492 0.55078125 C-3 0 -3 0 0 0 Z " fill="#111111" transform="translate(192,101)"/>
<path d="M0 0 C8.18929866 7.5937133 12.83797222 18.45393624 13.30078125 29.55078125 C13.32024304 31.13790632 13.32374424 32.72529544 13.3125 34.3125 C13.30686035 35.14918213 13.3012207 35.98586426 13.29541016 36.84790039 C13.1692673 43.29180225 12.42894047 48.98327342 10 55 C9.62101562 55.97066406 9.24203125 56.94132812 8.8515625 57.94140625 C4.0882848 68.72073121 -3.73132305 77.17034588 -14.515625 82.09765625 C-25.59567669 86.12201465 -37.60896295 86.96037565 -48.60546875 82.26171875 C-59.477384 76.53312393 -65.7012502 68.48390568 -69.6875 57.0234375 C-73.46555963 43.43291744 -71.62625706 27.75077345 -65.3125 15.3125 C-58.62872637 3.88752734 -49.68528337 -4.04884616 -37 -8 C-23.61140128 -11.34714968 -10.63501132 -8.67162462 0 0 Z M-48 11 C-53.44050984 18.86897271 -54.34444026 26.44122821 -54.3125 35.8125 C-54.32861328 36.74642578 -54.34472656 37.68035156 -54.36132812 38.64257812 C-54.36868878 49.24928465 -51.48578877 58.52757323 -45 67 C-40.02388544 71.89520213 -34.74134397 74.87543267 -27.62109375 75.0625 C-20.5648561 74.71776778 -15.45018914 72.53105295 -10.5 67.46484375 C-2.54841112 57.45436132 -2.92059658 44.14017236 -4 32 C-5.96315407 21.0196467 -10.76908265 11.48128239 -20 5 C-30.3049521 0.05640811 -40.68229906 2.5268726 -48 11 Z " fill="#111111" transform="translate(501,110)"/>
<path d="M0 0 C2.475 0.495 2.475 0.495 5 1 C4.67 5.95 4.34 10.9 4 16 C13.24 15.67 22.48 15.34 32 15 C33 20 33 20 31 27 C21.76 27 12.52 27 3 27 C2.95800169 34.32170476 2.91793763 41.64297047 2.89649963 48.96469116 C2.88596064 52.37462546 2.87188847 55.7844595 2.84912109 59.19433594 C2.823133 63.11131561 2.81350822 67.02825507 2.8046875 70.9453125 C2.78920364 72.76906906 2.78920364 72.76906906 2.77340698 74.62966919 C2.77325592 75.77039886 2.77310486 76.91112854 2.77294922 78.08642578 C2.76628738 79.58533859 2.76628738 79.58533859 2.75949097 81.11453247 C3.03094833 84.37129747 3.73420643 86.9893643 5 90 C9.88391027 92.68615065 15.55784351 92.46089925 21 92 C24.27564363 91.07585059 24.27564363 91.07585059 27 90 C28.32 90 29.64 90 31 90 C31.33 91.98 31.66 93.96 32 96 C29.54259704 97.64723726 27.08412999 99.29284464 24.625 100.9375 C23.92632812 101.40607422 23.22765625 101.87464844 22.5078125 102.35742188 C21.50234375 103.0293457 21.50234375 103.0293457 20.4765625 103.71484375 C19.549646 104.33540649 19.549646 104.33540649 18.60400391 104.96850586 C13.40172615 108.31395845 6.51313654 107.72784395 0.60546875 106.50390625 C-4.00602653 104.94322812 -7.10719463 102.88462436 -10 99 C-13.3321594 91.24978184 -13.42667834 83.53620737 -13.40625 75.22265625 C-13.42280352 73.25462533 -13.43937321 71.28659439 -13.45691681 69.31857204 C-13.48892247 65.20354224 -13.49485092 61.08839641 -13.50531006 56.9732666 C-13.51498713 53.55915424 -13.53036398 50.14530267 -13.56091309 46.73130798 C-13.58247995 44.18057518 -13.59079127 41.62968914 -13.58459473 39.07887268 C-13.59470581 37.93015182 -13.60481689 36.78143097 -13.61523438 35.59790039 C-13.61728882 34.58659561 -13.61934326 33.57529083 -13.62145996 32.53334045 C-13.80622377 29.98082245 -13.80622377 29.98082245 -15.2935791 28.19309998 C-17.97640864 26.31731197 -20.80372557 26.30153532 -24 26 C-24.93422004 23.47760589 -25.05056322 22.1848071 -24.33203125 19.55859375 C-22.68416205 16.39333181 -21.14645317 15.50214556 -18.0625 13.75 C-11.59002757 9.86822658 -5.3552519 5.3552519 0 0 Z " fill="#111111" transform="translate(121,88)"/>
<path d="M0 0 C1.10952679 3.36572751 0.84757204 5.65704947 0.1328125 9.1015625 C-1.37779312 17.48225013 -1.71952044 25.88383618 -2.125 34.375 C-2.16669312 35.21094696 -2.20838623 36.04689392 -2.25134277 36.90817261 C-2.74999523 46.95539454 -3.19194569 57.00151237 -3.25 67.0625 C-3.25918457 67.92214355 -3.26836914 68.78178711 -3.27783203 69.66748047 C-3.25628583 73.84658232 -3.04773687 77.30109502 -1 81 C2.42932071 82.71466036 6.21716065 82.05404056 10 82 C9.67 85.3 9.34 88.6 9 92 C8.24493164 92.02505615 7.48986328 92.0501123 6.71191406 92.07592773 C3.22449906 92.19340024 -0.26274309 92.31542779 -3.75 92.4375 C-4.93722656 92.47681641 -6.12445313 92.51613281 -7.34765625 92.55664062 C-14.92323744 92.82571865 -22.45255932 93.29296964 -30 94 C-30.02559453 90.82430898 -30.00690625 88.04180579 -29 85 C-27.03227551 83.50798913 -25.23983244 82.74832728 -22.91015625 81.94921875 C-20.36740727 80.6856441 -20.02499815 79.63001037 -19 77 C-18.69135747 74.24074654 -18.69135747 74.24074654 -18.7253418 71.19335938 C-18.71580978 70.0253479 -18.70627777 68.85733643 -18.69645691 67.65393066 C-18.69736832 66.39657104 -18.69827972 65.13921143 -18.69921875 63.84375 C-18.69493362 62.54932983 -18.6906485 61.25490967 -18.68623352 59.92126465 C-18.67878159 57.18428445 -18.67905544 54.44743329 -18.68432617 51.71044922 C-18.69012523 48.20649814 -18.67317509 44.70307491 -18.6499815 41.19921112 C-18.63169388 37.85153521 -18.63542948 34.50397561 -18.63671875 31.15625 C-18.627509 29.89889038 -18.61829926 28.64153076 -18.60881042 27.34606934 C-18.61815361 25.59405212 -18.61815361 25.59405212 -18.62768555 23.80664062 C-18.62705612 22.77945923 -18.6264267 21.75227783 -18.6257782 20.69396973 C-19.05462228 17.60678198 -19.85057124 16.22590277 -22 14 C-24.0488648 13.51942285 -24.0488648 13.51942285 -26.1875 13.75 C-28.0746875 13.87375 -28.0746875 13.87375 -30 14 C-30.36638891 8.5041664 -30.36638891 8.5041664 -28.828125 6.38745117 C-26.45929569 4.58963373 -24.47493856 4.19465698 -21.5625 3.61328125 C-20.50289063 3.39736328 -19.44328125 3.18144531 -18.3515625 2.95898438 C-17.24554688 2.74564453 -16.13953125 2.53230469 -15 2.3125 C-13.34097656 1.97508789 -13.34097656 1.97508789 -11.6484375 1.63085938 C-3.49909764 0 -3.49909764 0 0 0 Z " fill="#111111" transform="translate(406,101)"/>
<path d="M0 0 C2.77682182 1.72629852 3.3536122 2.98162237 5 6 C5.9711207 11.93462648 4.34135539 15.2664132 1 20 C-2.34042786 22.64930485 -5.86696196 22.3625472 -10 22 C-12.82275936 20.74544028 -14.46288541 19.71615278 -16.3125 17.25 C-17.31516165 13.96856187 -17.35356638 11.41780831 -17 8 C-12.88938963 0.48750519 -8.29227034 -1.49208049 0 0 Z " fill="#111111" transform="translate(401,57)"/>
</svg>
